<?xml version="1.0" encoding="UTF-8"?>
<svg width="120px" height="80px" viewBox="0 0 120 80" version="1.1" xmlns="http://www.w3.org/2000/svg" xmlns:xlink="http://www.w3.org/1999/xlink">
    <!-- Generator: Sketch 63.1 (92452) - https://sketch.com -->
    <title>導航圖標</title>
    <desc>Created with Sketch.</desc>
    <g id="導航圖標" stroke="none" stroke-width="1" fill="none" fill-rule="evenodd">
        <rect id="矩形" fill="#F19400" x="0" y="0" width="120" height="80"></rect>
        <g id="logo/cinch黑" transform="translate(18.823529, 24.117647)" fill="#FFFFFF">
            <path d="M8.0331339,14.6691144 C11.3869574,14.6691144 14.1222516,16.6512321 14.2851927,20.0688257 L14.2851927,20.0688257 L12.1713692,20.0688257 C12.0075457,17.6093711 10.410781,16.4285904 7.70666332,16.4285904 C4.71607508,16.4285904 2.85931037,19.4941733 2.85931037,23.137585 C2.85931037,26.8147829 4.71607508,29.9132856 7.70666332,29.9132856 C10.2478398,29.9132856 12.0075457,28.3784727 12.1713692,26.175446 L12.1713692,26.175446 L14.2851927,26.175446 C13.7643104,29.8477348 11.6169574,31.6701626 7.90607508,31.6701626 C3.01931037,31.6701626 0.74607508,27.5485476 0.74607508,23.1670396 C0.74607508,18.8236492 3.18666332,14.6691144 8.0331339,14.6691144 Z M52.8063692,14.6691144 C56.1590163,14.6691144 58.8937221,16.6512321 59.0554868,20.0688257 L59.0554868,20.0688257 L56.9410751,20.0688257 C56.778428,17.6093711 55.1822516,16.4285904 52.4831339,16.4285904 C49.4875457,16.4285904 47.6316633,19.4941733 47.6316633,23.137585 C47.6316633,26.8147829 49.4875457,29.9132856 52.4831339,29.9132856 C55.0193104,29.9132856 56.778428,28.3784727 56.9410751,26.175446 L56.9410751,26.175446 L59.0554868,26.175446 C58.5363692,29.8477348 56.3881339,31.6701626 52.6790163,31.6701626 C47.7925457,31.6701626 45.5169574,27.5485476 45.5169574,23.1670396 C45.5169574,18.8236492 47.9566633,14.6691144 52.8063692,14.6691144 Z M21.7263692,15.1470289 L21.7263692,31.1919594 L19.7751927,31.1919594 L19.7751927,15.1470289 L21.7263692,15.1470289 Z M35.0281339,14.6691144 C40.3651927,14.6691144 40.7896045,19.3041626 40.7896045,21.1557561 L40.7896045,31.1919594 L38.8375457,31.1919594 L38.8375457,20.8352214 C38.8375457,18.0546545 37.2078398,16.4285904 34.5393104,16.4285904 C31.3169574,16.4285904 29.8522516,19.0774781 29.8522516,21.9556492 L29.8522516,21.9556492 L29.8522516,31.1919594 L27.8966633,31.1919594 L27.8966633,15.1470289 L29.8331339,15.1470289 L29.8331339,17.7306545 L29.9178398,17.5752963 C31.055781,15.5937561 32.9125457,14.6691144 35.0281339,14.6691144 Z M66.2728398,0.288654545 L66.2728398,17.5752963 L66.3404868,17.5752963 C67.4772516,15.5937561 69.3322516,14.6691144 71.448428,14.6691144 C76.7848986,14.6691144 77.2125457,19.3041626 77.2125457,21.1557561 L77.2125457,31.1919594 L75.2554868,31.1919594 L75.2554868,20.8352214 C75.2554868,18.0546545 73.6293104,16.4285904 70.9587221,16.4285904 C67.738428,16.4285904 66.2728398,19.0774781 66.2728398,21.9556492 L66.2728398,21.9556492 L66.2728398,31.1919594 L64.3190163,31.1919594 L64.3190163,0.288654545 L66.2728398,0.288654545 Z M80.1701492,14.3149971 C80.4115074,14.3149971 80.6471493,14.3757986 80.8770749,14.4974016 C81.1070004,14.6190046 81.2861136,14.7929905 81.4144146,15.0193591 C81.5427156,15.2457278 81.6068661,15.4817624 81.6068661,15.7274628 C81.6068661,15.9706688 81.5436683,16.2045207 81.4172728,16.4290186 C81.2908773,16.6535164 81.1136695,16.827814 80.8856494,16.9519115 C80.6576294,17.0760089 80.4191293,17.1380576 80.1701492,17.1380576 C79.921169,17.1380576 79.6826689,17.0760089 79.4546489,16.9519115 C79.2266288,16.827814 79.0491034,16.6535164 78.9220728,16.4290186 C78.7950421,16.2045207 78.7315268,15.9706688 78.7315268,15.7274628 C78.7315268,15.4817624 78.7959948,15.2457278 78.924931,15.0193591 C79.0538671,14.7929905 79.2332979,14.6190046 79.4632234,14.4974016 C79.693149,14.3757986 79.9287909,14.3149971 80.1701492,14.3149971 Z M80.1701492,14.5488491 C79.9681704,14.5488491 79.7715904,14.5996729 79.5804092,14.7013205 C79.3892281,14.8029682 79.2396495,14.9482682 79.1316734,15.1372205 C79.0236973,15.3261729 78.9697093,15.5229203 78.9697093,15.7274628 C78.9697093,15.930758 79.0227446,16.1256347 79.1288152,16.3120926 C79.2348858,16.4985505 79.3831941,16.6438505 79.5737401,16.7479926 C79.7642861,16.8521346 79.9630892,16.9042057 80.1701492,16.9042057 C80.3772092,16.9042057 80.5760122,16.8521346 80.7665582,16.7479926 C80.9571042,16.6438505 81.1050949,16.4985505 81.2105304,16.3120926 C81.3159658,16.1256347 81.3686836,15.930758 81.3686836,15.7274628 C81.3686836,15.5229203 81.3150131,15.3261729 81.2076722,15.1372205 C81.1003313,14.9482682 80.9507527,14.8029682 80.7589363,14.7013205 C80.56712,14.5996729 80.3708576,14.5488491 80.1701492,14.5488491 Z M80.0710652,14.9884907 L80.1978974,14.9911215 C80.3153214,14.9963832 80.4045208,15.0095374 80.4654955,15.030584 C80.5467951,15.0586463 80.6115808,15.1075993 80.6598524,15.177443 C80.7081241,15.2472868 80.7322599,15.3214958 80.7322599,15.4000701 C80.7322599,15.5110718 80.6919277,15.6077306 80.6112632,15.6900465 C80.5305987,15.7723623 80.4235754,15.8185091 80.2901931,15.8284868 C80.3448163,15.8509366 80.3886419,15.8777516 80.4216699,15.9089319 C80.4839149,15.968798 80.5601333,16.0691984 80.6503251,16.2101331 L80.6503251,16.2101331 L80.8389657,16.5075928 L80.534092,16.5075928 L80.3968989,16.2681284 L80.3346285,16.1635873 C80.2549548,16.0354738 80.1886956,15.9524595 80.1358509,15.9145443 C80.0901198,15.8796224 80.0234287,15.8621615 79.9357776,15.8621615 L79.9357776,15.8621615 L79.7890571,15.8621615 L79.7890571,16.5075928 L79.5394419,16.5075928 L79.5394419,14.9884907 L80.0710652,14.9884907 Z M80.0729707,15.1942804 L79.7890571,15.1942804 L79.7890571,15.6526302 L80.0920253,15.6526302 C80.2368403,15.6526302 80.3356066,15.6314276 80.3883243,15.5890224 C80.4410421,15.5466173 80.4674009,15.4904928 80.4674009,15.420649 C80.4674009,15.3757495 80.4546979,15.3355269 80.4292917,15.2999815 C80.4038856,15.264436 80.3686346,15.2379327 80.3235387,15.2204718 C80.2784428,15.2030109 80.1949201,15.1942804 80.0729707,15.1942804 L80.0729707,15.1942804 Z M21.5251927,0.288654545 L21.5251927,10.5148684 L19.6116633,10.5148684 L19.6116633,0.288654545 L21.5251927,0.288654545 Z" id="形状结合"></path>
        </g>
    </g>
</svg>