<?xml version="1.0" encoding="UTF-8"?>
<svg width="123px" height="26px" viewBox="0 0 123 26" version="1.1" xmlns="http://www.w3.org/2000/svg" xmlns:xlink="http://www.w3.org/1999/xlink">
    <!-- Generator: Sketch 63.1 (92452) - https://sketch.com -->
    <title>facebook灰</title>
    <desc>Created with Sketch.</desc>
    <g id="facebook灰" stroke="none" stroke-width="1" fill="none" fill-rule="evenodd">
        <path d="M35.4852687,19 L35.4852687,13.88 L41.1652687,13.88 L41.1652687,12.392 L35.4852687,12.392 L35.4852687,9.064 L41.5012687,9.064 L41.5012687,7.576 L33.7412687,7.576 L33.7412687,19 L35.4852687,19 Z M43.8659583,19 L44.9379583,16.056 L49.8499583,16.056 L50.9219583,19 L52.7939583,19 L48.3939583,7.576 L46.4099583,7.576 L42.0099583,19 L43.8659583,19 Z M49.3219583,14.616 L45.4659583,14.616 L47.3699583,9.448 L47.4339583,9.448 L49.3219583,14.616 Z M58.982648,19.224 C60.214648,19.224 61.270648,18.872 62.150648,18.168 C63.094648,17.416 63.686648,16.376 63.942648,15.048 L62.246648,15.048 C62.022648,15.944 61.622648,16.616 61.046648,17.064 C60.502648,17.48 59.798648,17.688 58.966648,17.688 C57.686648,17.688 56.742648,17.288 56.134648,16.488 C55.558648,15.736 55.270648,14.68 55.270648,13.304 C55.270648,11.976 55.558648,10.92 56.150648,10.152 C56.774648,9.304 57.702648,8.888 58.934648,8.888 C59.766648,8.888 60.438648,9.064 60.982648,9.432 C61.526648,9.8 61.894648,10.376 62.086648,11.144 L63.782648,11.144 C63.606648,9.992 63.094648,9.064 62.262648,8.392 C61.398648,7.688 60.294648,7.352 58.966648,7.352 C57.142648,7.352 55.766648,7.944 54.806648,9.16 C53.942648,10.232 53.526648,11.608 53.526648,13.304 C53.526648,15.032 53.926648,16.408 54.758648,17.432 C55.702648,18.616 57.110648,19.224 58.982648,19.224 Z M74.2753377,19 L74.2753377,17.512 L67.5393377,17.512 L67.5393377,13.88 L73.6193377,13.88 L73.6193377,12.392 L67.5393377,12.392 L67.5393377,9.064 L74.0033377,9.064 L74.0033377,7.576 L65.7953377,7.576 L65.7953377,19 L74.2753377,19 Z M81.3600274,19 C82.5760274,19 83.5200274,18.776 84.1920274,18.328 C84.9760274,17.784 85.3760274,16.952 85.3760274,15.8 C85.3760274,15.032 85.1840274,14.408 84.8000274,13.944 C84.4160274,13.48 83.8400274,13.176 83.0880274,13.032 C83.6640274,12.824 84.0960274,12.504 84.4160274,12.088 C84.7360274,11.64 84.8960274,11.096 84.8960274,10.456 C84.8960274,9.576 84.5920274,8.888 83.9840274,8.376 C83.3440274,7.832 82.4800274,7.576 81.3600274,7.576 L76.1440274,7.576 L76.1440274,19 L81.3600274,19 Z M80.8960274,12.424 L77.8880274,12.424 L77.8880274,9.016 L80.9280274,9.016 C81.6960274,9.016 82.2720274,9.144 82.6240274,9.416 C82.9760274,9.672 83.1520274,10.088 83.1520274,10.664 C83.1520274,11.272 82.9760274,11.72 82.6240274,12.008 C82.2720274,12.28 81.6960274,12.424 80.8960274,12.424 Z M81.1200274,17.56 L77.8880274,17.56 L77.8880274,13.848 L81.1680274,13.848 C82.0000274,13.848 82.6240274,13.992 83.0240274,14.296 C83.4240274,14.6 83.6320274,15.096 83.6320274,15.768 C83.6320274,16.424 83.3600274,16.904 82.8480274,17.208 C82.4320274,17.432 81.8560274,17.56 81.1200274,17.56 Z M92.284717,19.224 C94.012717,19.224 95.388717,18.664 96.396717,17.544 C97.356717,16.456 97.836717,15.048 97.836717,13.304 C97.836717,11.544 97.356717,10.12 96.396717,9.048 C95.388717,7.912 94.012717,7.352 92.284717,7.352 C90.540717,7.352 89.164717,7.912 88.172717,9.064 C87.212717,10.152 86.748717,11.56 86.748717,13.304 C86.748717,15.032 87.212717,16.44 88.172717,17.528 C89.164717,18.648 90.540717,19.224 92.284717,19.224 Z M92.284717,17.688 C91.068717,17.688 90.124717,17.272 89.452717,16.472 C88.812717,15.688 88.492717,14.632 88.492717,13.304 C88.492717,11.96 88.812717,10.904 89.452717,10.12 C90.124717,9.288 91.068717,8.888 92.284717,8.888 C93.500717,8.888 94.444717,9.272 95.100717,10.072 C95.740717,10.856 96.076717,11.928 96.076717,13.304 C96.076717,14.664 95.740717,15.736 95.100717,16.504 C94.444717,17.288 93.500717,17.688 92.284717,17.688 Z M104.745407,19.224 C106.473407,19.224 107.849407,18.664 108.857407,17.544 C109.817407,16.456 110.297407,15.048 110.297407,13.304 C110.297407,11.544 109.817407,10.12 108.857407,9.048 C107.849407,7.912 106.473407,7.352 104.745407,7.352 C103.001407,7.352 101.625407,7.912 100.633407,9.064 C99.6734067,10.152 99.2094067,11.56 99.2094067,13.304 C99.2094067,15.032 99.6734067,16.44 100.633407,17.528 C101.625407,18.648 103.001407,19.224 104.745407,19.224 Z M104.745407,17.688 C103.529407,17.688 102.585407,17.272 101.913407,16.472 C101.273407,15.688 100.953407,14.632 100.953407,13.304 C100.953407,11.96 101.273407,10.904 101.913407,10.12 C102.585407,9.288 103.529407,8.888 104.745407,8.888 C105.961407,8.888 106.905407,9.272 107.561407,10.072 C108.201407,10.856 108.537407,11.928 108.537407,13.304 C108.537407,14.664 108.201407,15.736 107.561407,16.504 C106.905407,17.288 105.961407,17.688 104.745407,17.688 Z M113.894096,19 L113.894096,15.048 L115.382096,13.624 L120.022096,19 L122.358096,19 L116.566096,12.488 L121.622096,7.576 L119.414096,7.576 L113.894096,13.096 L113.894096,7.576 L112.150096,7.576 L112.150096,19 L113.894096,19 Z" id="FACEBOOK" fill="#838385" fill-rule="nonzero"></path>
        <path d="M13,1.86517468e-13 C20.1797017,1.86517468e-13 26,5.82029825 26,13 C26,19.3871691 21.3937314,24.6984865 15.3219054,25.793241 L15.3219047,16.664 L18.4539047,16.664 L18.9219047,13.064 L15.3219047,13.064 L15.3219047,10.748 C15.3219047,9.70399999 15.6099047,8.98399999 17.1219047,8.98399999 L17.1219047,8.98399999 L19.0299047,8.98399999 L19.0299047,5.744 C18.1014446,5.64233197 17.1678971,5.59425227 16.2339048,5.6 C14.9473744,5.50830659 13.6860921,5.98989017 12.7880629,6.91569344 C11.8900338,7.8414967 11.4470793,9.11685825 11.5779048,10.4 L11.5779048,10.4 L11.5779048,13.1 L8.45790476,13.1 L8.45790476,16.7 L11.5779048,16.7 L11.5775255,25.9230682 C5.06702279,25.2145407 0,19.6990036 0,13 C0,5.82029825 5.82029825,1.86517468e-13 13,1.86517468e-13 Z" id="形状结合" fill="#838385"></path>
    </g>
</svg>