<?xml version="1.0" encoding="UTF-8"?>
<svg width="11px" height="7px" viewBox="0 0 11 7" version="1.1" xmlns="http://www.w3.org/2000/svg" xmlns:xlink="http://www.w3.org/1999/xlink">
    <!-- Generator: Sketch 63.1 (92452) - https://sketch.com -->
    <title>形状结合</title>
    <desc>Created with Sketch.</desc>
    <g id="组件" stroke="none" stroke-width="1" fill="none" fill-rule="evenodd">
        <g id="加入會員" transform="translate(-150.000000, -26.000000)" fill="#ffffff" fill-rule="nonzero">
            <g id="编组-11" transform="translate(65.000000, 16.000000)">
                <g id="编组-3" transform="translate(0.000000, 0.500000)">
                    <g id="编组-2" transform="translate(85.000000, 9.500000)">
                        <path d="M8.14410636,0.595304858 L8.21199194,0.654752923 L10.4914258,3.04260959 L10.5001891,3.05202394 C10.5149085,3.06825005 10.5285766,3.08544743 10.5410857,3.10350851 L10.4914258,3.04260959 C10.5163508,3.06872022 10.5379081,3.09685622 10.5560971,3.1264703 C10.5654256,3.14165224 10.5742054,3.15783213 10.5820891,3.17451837 C10.6339615,3.28477942 10.6434495,3.40945336 10.6107384,3.52473315 C10.6066487,3.53925789 10.6020584,3.55301522 10.5969016,3.56649235 C10.5931015,3.57636507 10.5889712,3.58622466 10.5845111,3.595971 C10.5762952,3.61389361 10.5671594,3.63105329 10.5570915,3.64758287 C10.5555322,3.65017677 10.5539356,3.65274611 10.5523134,3.655304 L10.5410857,3.67220483 C10.5277779,3.6914191 10.5131584,3.70965584 10.4973568,3.72678557 L10.4919754,3.73252711 L8.21254152,6.12801328 C8.02218529,6.32806107 7.7057003,6.33591764 7.50565251,6.14556141 C7.32783225,5.97635588 7.30186679,5.70749305 7.43198526,5.50933476 L7.48810438,5.43867241 L8.963,3.88699915 L1,3.88785667 C0.723857625,3.88785667 0.5,3.66399904 0.5,3.38785667 C0.5,3.14239678 0.676875161,2.9382483 0.910124368,2.89591234 L1,2.88785667 L8.96,2.88699915 L7.48865396,1.34524708 C7.31916534,1.16769662 7.30614253,0.897897005 7.44562781,0.706216584 L7.50507587,0.638331014 C7.68262633,0.468842395 7.95242594,0.455819582 8.14410636,0.595304858 Z" id="形状结合"></path>
                    </g>
                </g>
            </g>
        </g>
    </g>
</svg>