<?xml version="1.0" encoding="UTF-8"?>
<svg width="1439px" height="33px" viewBox="0 0 1439 33" version="1.1" xmlns="http://www.w3.org/2000/svg" xmlns:xlink="http://www.w3.org/1999/xlink">
    <!-- Generator: Sketch 63.1 (92452) - https://sketch.com -->
    <title>標尺</title>
    <desc>Created with Sketch.</desc>
    <defs>
        <rect id="path-1" x="0" y="0" width="1440" height="60"></rect>
        <rect id="path-3" x="0" y="0" width="1915" height="60.2956532"></rect>
    </defs>
    <g id="設計" stroke="none" stroke-width="1" fill="none" fill-rule="evenodd">
        <g id="1首頁" transform="translate(-241.000000, -800.000000)">
            <g id="標尺" transform="translate(240.000000, 800.000000)">
                <mask id="mask-2" fill="white">
                    <use xlink:href="#path-1"></use>
                </mask>
                <use id="蒙版" fill="#D8D8D8" opacity="0" xlink:href="#path-1"></use>
                <g id="標尺备份" mask="url(#mask-2)">
                    <g transform="translate(-281.000000, 0.000000)">
                        <mask id="mask-4" fill="white">
                            <use xlink:href="#path-3"></use>
                        </mask>
                        <use id="矩形" stroke="none" fill="#D8D8D8" fill-rule="evenodd" opacity="0" xlink:href="#path-3"></use>
                        <g id="logo/cinch" stroke="none" stroke-width="1" fill="none" fill-rule="evenodd" mask="url(#mask-4)">
                            <g transform="translate(1565.172324, -0.295653)" fill="#F19400" id="形状结合">
                                <path d="M7.32315995,15.0542669 C10.6936616,15.0542669 13.442558,17.0884271 13.6063094,20.5957531 L13.6063094,20.5957531 L11.4819741,20.5957531 C11.3173359,18.0717231 9.71263072,16.8599397 6.99506586,16.8599397 C3.98960583,16.8599397 2.12360769,20.0060126 2.12360769,23.7450858 C2.12360769,27.5188323 3.98960583,30.6986893 6.99506586,30.6986893 C9.54887926,30.6986893 11.3173359,29.1235784 11.4819741,26.8627089 L11.4819741,26.8627089 L13.6063094,26.8627089 C13.0828368,30.6314174 10.9248053,32.5016949 7.19546928,32.5016949 C2.28440334,32.5016949 -0.000136443359,28.2718627 -0.000136443359,23.7753137 C-0.000136443359,19.3178832 2.45258851,15.0542669 7.32315995,15.0542669 Z M52.3190465,15.0542669 C55.6883659,15.0542669 58.4366711,17.0884271 58.5992402,20.5957531 L58.5992402,20.5957531 L56.4743137,20.5957531 C56.3108579,18.0717231 54.7067438,16.8599397 51.9942038,16.8599397 C48.9837189,16.8599397 47.1186075,20.0060126 47.1186075,23.7450858 C47.1186075,27.5188323 48.9837189,30.6986893 51.9942038,30.6986893 C54.5429924,30.6986893 56.3108579,29.1235784 56.4743137,26.8627089 L56.4743137,26.8627089 L58.5992402,26.8627089 C58.077541,30.6314174 55.9186229,32.5016949 52.1910603,32.5016949 C47.2802899,32.5016949 44.9933855,28.2718627 44.9933855,23.7753137 C44.9933855,19.3178832 47.4452237,15.0542669 52.3190465,15.0542669 Z M21.0844899,15.5447295 L21.0844899,32.0109359 L19.1236105,32.0109359 L19.1236105,15.5447295 L21.0844899,15.5447295 Z M34.4524025,15.0542669 C39.8160018,15.0542669 40.2425241,19.811013 40.2425241,21.711222 L40.2425241,32.0109359 L38.2807579,32.0109359 L38.2807579,21.3822713 C38.2807579,18.5286978 36.6429477,16.8599397 33.9611481,16.8599397 C30.7227708,16.8599397 29.2507811,19.5783766 29.2507811,22.5321171 L29.2507811,22.5321171 L29.2507811,32.0109359 L27.285468,32.0109359 L27.285468,15.5447295 L29.2315684,15.5447295 L29.2315684,18.1961909 L29.3166955,18.0367535 C30.4602955,16.0031861 32.3262937,15.0542669 34.4524025,15.0542669 Z M65.8524841,0.296233464 L65.8524841,18.0367535 L65.9204675,18.0367535 C67.0628852,16.0031861 68.9271099,15.0542669 71.0538098,15.0542669 C76.4168179,15.0542669 76.8465916,19.811013 76.8465916,21.711222 L76.8465916,32.0109359 L74.8798006,32.0109359 L74.8798006,21.3822713 C74.8798006,18.5286978 73.2455374,16.8599397 70.5616687,16.8599397 C67.3253605,16.8599397 65.8524841,19.5783766 65.8524841,22.5321171 L65.8524841,22.5321171 L65.8524841,32.0109359 L63.8889444,32.0109359 L63.8889444,0.296233464 L65.8524841,0.296233464 Z M79.8189029,14.6908519 C80.0614614,14.6908519 80.2982751,14.7532498 80.529344,14.8780457 C80.760413,15.0028415 80.9404169,15.1813955 81.0693559,15.4137077 C81.1982949,15.6460199 81.2627644,15.8882518 81.2627644,16.1404033 C81.2627644,16.3899949 81.1992524,16.6299869 81.0722283,16.8603791 C80.9452043,17.0907714 80.7671152,17.2696454 80.5379613,17.3970011 C80.3088073,17.5243568 80.0691212,17.5880347 79.8189029,17.5880347 C79.5686846,17.5880347 79.3289985,17.5243568 79.0998445,17.3970011 C78.8706905,17.2696454 78.6922824,17.0907714 78.56462,16.8603791 C78.4369576,16.6299869 78.3731264,16.3899949 78.3731264,16.1404033 C78.3731264,15.8882518 78.4379151,15.6460199 78.5674924,15.4137077 C78.6970697,15.1813955 78.8773928,15.0028415 79.1084617,14.8780457 C79.3395306,14.7532498 79.5763444,14.6908519 79.8189029,14.6908519 Z M79.8189029,14.9308439 C79.6159197,14.9308439 79.4183622,14.9830021 79.2262303,15.0873186 C79.0340984,15.1916351 78.8837759,15.3407501 78.7752629,15.5346636 C78.6667499,15.7285771 78.6124934,15.9304903 78.6124934,16.1404033 C78.6124934,16.3490363 78.6657924,16.5490296 78.7723905,16.7403832 C78.8789886,16.9317367 79.0280344,17.0808517 79.219528,17.1877281 C79.4110216,17.2946046 79.6108132,17.3480428 79.8189029,17.3480428 C80.0269926,17.3480428 80.2267842,17.2946046 80.4182778,17.1877281 C80.6097713,17.0808517 80.758498,16.9317367 80.8644578,16.7403832 C80.9704176,16.5490296 81.0233975,16.3490363 81.0233975,16.1404033 C81.0233975,15.9304903 80.9694601,15.7285771 80.8615854,15.5346636 C80.7537107,15.3407501 80.6033882,15.1916351 80.410618,15.0873186 C80.2178478,14.9830021 80.0206095,14.9308439 79.8189029,14.9308439 Z M79.7193262,15.3820287 L79.8467891,15.3847287 C79.9647971,15.3901285 80.05444,15.403628 80.1157179,15.4252273 C80.1974219,15.4540263 80.2625297,15.5042646 80.3110414,15.5759422 C80.3595531,15.6476198 80.3838089,15.7237773 80.3838089,15.8044146 C80.3838089,15.9183307 80.3432761,16.0175274 80.2622105,16.1020046 C80.1811449,16.1864817 80.0735893,16.2338402 79.9395438,16.2440798 C79.9944387,16.267119 80.0384822,16.2946381 80.0716744,16.326637 C80.134229,16.388075 80.2108264,16.4911115 80.3014667,16.6357467 L80.3014667,16.6357467 L80.4910453,16.9410164 L80.1846556,16.9410164 L80.0467802,16.6952647 L79.9842001,16.5879787 C79.9041303,16.4565015 79.8375416,16.3713075 79.784434,16.3323968 C79.7384756,16.2965581 79.6714528,16.2786387 79.5833658,16.2786387 L79.5833658,16.2786387 L79.4359157,16.2786387 L79.4359157,16.9410164 L79.1850592,16.9410164 L79.1850592,15.3820287 L79.7193262,15.3820287 Z M79.7212412,15.5932217 L79.4359157,15.5932217 L79.4359157,16.0636059 L79.7403905,16.0636059 C79.8859256,16.0636059 79.9851831,16.0418466 80.038163,15.9983281 C80.0911429,15.9548095 80.1176329,15.8972115 80.1176329,15.8255339 C80.1176329,15.7794554 80.1048666,15.7381768 80.0793341,15.701698 C80.0538017,15.6652192 80.0183754,15.6380202 79.9730552,15.6201008 C79.9277351,15.6021814 79.8437971,15.5932217 79.7212412,15.5932217 L79.7212412,15.5932217 Z M20.882313,0.296233464 L20.882313,10.790947 L18.9592678,10.790947 L18.9592678,0.296233464 L20.882313,0.296233464 Z"></path>
                            </g>
                        </g>
                        <path d="M2169.5562,0 L2169.5562,10.4906384 L2167.66115,10.4906384 L2167.66115,0 L2169.5562,0 Z M2124.67339,0 L2124.67339,10.4906384 L2122.77834,10.4906384 L2122.77834,0 L2124.67339,0 Z M2079.79058,0 L2079.79058,10.4906384 L2077.89553,10.4906384 L2077.89553,0 L2079.79058,0 Z M2034.90777,0 L2034.90777,10.4906384 L2033.01271,10.4906384 L2033.01271,0 L2034.90777,0 Z M1990.02495,0 L1990.02495,10.4906384 L1988.1299,10.4906384 L1988.1299,0 L1990.02495,0 Z M1945.14214,0 L1945.14214,10.4906384 L1943.24709,10.4906384 L1943.24709,0 L1945.14214,0 Z M1900.25933,0 L1900.25933,10.4906384 L1898.36428,10.4906384 L1898.36428,0 L1900.25933,0 Z M1855.37652,0 L1855.37652,10.4906384 L1853.48146,10.4906384 L1853.48146,0 L1855.37652,0 Z M1810.4937,0 L1810.4937,10.4906384 L1808.59865,10.4906384 L1808.59865,0 L1810.4937,0 Z M1765.61089,0 L1765.61089,10.4906384 L1763.71584,10.4906384 L1763.71584,0 L1765.61089,0 Z M1720.72808,0 L1720.72808,10.4906384 L1718.83303,10.4906384 L1718.83303,0 L1720.72808,0 Z M1675.84527,0 L1675.84527,10.4906384 L1673.95021,10.4906384 L1673.95021,0 L1675.84527,0 Z M1630.96245,0 L1630.96245,10.4906384 L1629.0674,10.4906384 L1629.0674,0 L1630.96245,0 Z M1586.07964,0 L1586.07964,10.4906384 L1584.18459,10.4906384 L1584.18459,0 L1586.07964,0 Z M1541.19683,0 L1541.19683,10.4906384 L1539.30178,10.4906384 L1539.30178,0 L1541.19683,0 Z M1496.31402,0 L1496.31402,10.4906384 L1494.41896,10.4906384 L1494.41896,0 L1496.31402,0 Z M1451.4312,0 L1451.4312,10.4906384 L1449.53615,10.4906384 L1449.53615,0 L1451.4312,0 Z M1406.54839,0 L1406.54839,10.4906384 L1404.65334,10.4906384 L1404.65334,0 L1406.54839,0 Z M1361.66558,0 L1361.66558,10.4906384 L1359.77053,10.4906384 L1359.77053,0 L1361.66558,0 Z M1316.78277,0 L1316.78277,10.4906384 L1314.88771,10.4906384 L1314.88771,0 L1316.78277,0 Z M1271.89995,0 L1271.89995,10.4906384 L1270.0049,10.4906384 L1270.0049,0 L1271.89995,0 Z M1227.01714,0 L1227.01714,10.4906384 L1225.12209,10.4906384 L1225.12209,0 L1227.01714,0 Z M1182.13433,0 L1182.13433,10.4906384 L1180.23928,10.4906384 L1180.23928,0 L1182.13433,0 Z M1137.25152,0 L1137.25152,10.4906384 L1135.35646,10.4906384 L1135.35646,0 L1137.25152,0 Z M1092.3687,0 L1092.3687,10.4906384 L1090.47365,10.4906384 L1090.47365,0 L1092.3687,0 Z M1047.48589,0 L1047.48589,10.4906384 L1045.59084,10.4906384 L1045.59084,0 L1047.48589,0 Z M1002.60308,0 L1002.60308,10.4906384 L1000.70803,10.4906384 L1000.70803,0 L1002.60308,0 Z M957.720267,0 L957.720267,10.4906384 L955.825215,10.4906384 L955.825215,0 L957.720267,0 Z M912.837454,0 L912.837454,10.4906384 L910.942402,10.4906384 L910.942402,0 L912.837454,0 Z M867.954642,0 L867.954642,10.4906384 L866.05959,10.4906384 L866.05959,0 L867.954642,0 Z M823.071829,0 L823.071829,10.4906384 L821.176777,10.4906384 L821.176777,0 L823.071829,0 Z M778.189017,0 L778.189017,10.4906384 L776.293965,10.4906384 L776.293965,0 L778.189017,0 Z M733.306204,0 L733.306204,10.4906384 L731.411152,10.4906384 L731.411152,0 L733.306204,0 Z M688.423392,0 L688.423392,10.4906384 L686.52834,10.4906384 L686.52834,0 L688.423392,0 Z M643.540579,0 L643.540579,10.4906384 L641.645527,10.4906384 L641.645527,0 L643.540579,0 Z M598.657767,0 L598.657767,10.4906384 L596.762715,10.4906384 L596.762715,0 L598.657767,0 Z M553.774954,0 L553.774954,10.4906384 L551.879902,10.4906384 L551.879902,0 L553.774954,0 Z M508.892142,0 L508.892142,10.4906384 L506.99709,10.4906384 L506.99709,0 L508.892142,0 Z M464.009329,0 L464.009329,10.4906384 L462.114277,10.4906384 L462.114277,0 L464.009329,0 Z M419.126517,0 L419.126517,10.4906384 L417.231465,10.4906384 L417.231465,0 L419.126517,0 Z M374.243704,0 L374.243704,10.4906384 L372.348652,10.4906384 L372.348652,0 L374.243704,0 Z M329.360892,0 L329.360892,10.4906384 L327.46584,10.4906384 L327.46584,0 L329.360892,0 Z M284.478079,0 L284.478079,10.4906384 L282.583027,10.4906384 L282.583027,0 L284.478079,0 Z M239.595267,0 L239.595267,10.4906384 L237.700215,10.4906384 L237.700215,0 L239.595267,0 Z M194.712454,0 L194.712454,10.4906384 L192.817402,10.4906384 L192.817402,0 L194.712454,0 Z M149.829642,0 L149.829642,10.4906384 L147.93459,10.4906384 L147.93459,0 L149.829642,0 Z M104.946829,0 L104.946829,10.4906384 L103.051777,10.4906384 L103.051777,0 L104.946829,0 Z M60.0640166,0 L60.0640166,10.4906384 L58.1689645,10.4906384 L58.1689645,0 L60.0640166,0 Z M15.1812041,0 L15.1812041,10.4906384 L13.286152,10.4906384 L13.286152,0 L15.1812041,0 Z M-29.7016084,0 L-29.7016084,10.4906384 L-31.5966605,10.4906384 L-31.5966605,0 L-29.7016084,0 Z" id="形状结合" stroke="none" fill="#F19400" fill-rule="nonzero" mask="url(#mask-4)"></path>
                    </g>
                </g>
            </g>
        </g>
    </g>
</svg>