<?xml version="1.0" encoding="UTF-8"?>
<svg width="733px" height="22px" viewBox="0 0 733 22" version="1.1" xmlns="http://www.w3.org/2000/svg" xmlns:xlink="http://www.w3.org/1999/xlink">
    <!-- Generator: Sketch 63.1 (92452) - https://sketch.com -->
    <title>標尺</title>
    <desc>Created with Sketch.</desc>
    <defs>
        <rect id="path-1" x="0" y="0" width="750" height="39"></rect>
        <rect id="path-3" x="0" y="0" width="1248" height="39.1921746"></rect>
    </defs>
    <g id="設計" stroke="none" stroke-width="1" fill="none" fill-rule="evenodd">
        <g id="1首頁备份-4" transform="translate(-17.000000, -416.000000)">
            <g id="標尺" transform="translate(0.000000, 416.666667)">
                <mask id="mask-2" fill="white">
                    <use xlink:href="#path-1"></use>
                </mask>
                <g id="蒙版"></g>
                <g id="標尺备份" mask="url(#mask-2)">
                    <g transform="translate(-342.000000, 0.000000)">
                        <mask id="mask-4" fill="white">
                            <use xlink:href="#path-3"></use>
                        </mask>
                        <use id="矩形" stroke="none" fill="#D8D8D8" fill-rule="evenodd" opacity="0" xlink:href="#path-3"></use>
                        <g id="logo/cinch" stroke="none" stroke-width="1" fill="none" fill-rule="evenodd" mask="url(#mask-4)">
                            <g transform="translate(1019.529586, -0.192175)" fill="#F19400" id="形状结合">
                                <path d="M5.26120409,9.78527351 C7.45775033,9.78527351 9.2491982,11.1074776 9.35591456,13.3872395 L9.35591456,13.3872395 L7.97149135,13.3872395 C7.86419711,11.74662 6.81841534,10.9589608 5.04738612,10.9589608 C3.08873645,10.9589608 1.87267082,13.0039082 1.87267082,15.4343058 C1.87267082,17.887241 3.08873645,19.954148 5.04738612,19.954148 C6.71169898,19.954148 7.86419711,18.9303259 7.97149135,17.4607608 L7.97149135,17.4607608 L9.35591456,17.4607608 C9.01476895,19.9104213 7.60838606,21.1261017 5.17798845,21.1261017 C1.97746089,21.1261017 0.488632869,18.3767108 0.488632869,15.4539539 C0.488632869,12.5566241 2.08706668,9.78527351 5.26120409,9.78527351 Z M34.5848941,9.78527351 C36.7806699,9.78527351 38.5717325,11.1074776 38.6776783,13.3872395 L38.6776783,13.3872395 L37.2928699,13.3872395 C37.1863461,11.74662 36.1409496,10.9589608 34.3731951,10.9589608 C32.4112707,10.9589608 31.195783,13.0039082 31.195783,15.4343058 C31.195783,17.887241 32.4112707,19.954148 34.3731951,19.954148 C36.0342333,19.954148 37.1863461,18.9303259 37.2928699,17.4607608 L37.2928699,17.4607608 L38.6776783,17.4607608 C38.3376885,19.9104213 36.9307277,21.1261017 34.5014859,21.1261017 C31.3011509,21.1261017 29.8107819,18.3767108 29.8107819,15.4539539 C29.8107819,12.5566241 31.4086378,9.78527351 34.5848941,9.78527351 Z M14.2294233,10.1040742 L14.2294233,20.8071084 L12.9515238,20.8071084 L12.9515238,10.1040742 L14.2294233,10.1040742 Z M22.9412535,9.78527351 C26.4366958,9.78527351 26.7146591,12.8771584 26.7146591,14.1122943 L26.7146591,14.1122943 L26.7146591,20.8071084 L25.4361818,20.8071084 L25.4361818,13.8984763 C25.4361818,12.0436536 24.3688256,10.9589608 22.6211044,10.9589608 C20.5106633,10.9589608 19.5513718,12.7259448 19.5513718,14.6458761 L19.5513718,14.6458761 L19.5513718,20.8071084 L18.2705829,20.8071084 L18.2705829,10.1040742 L19.538851,10.1040742 L19.538851,11.8275241 L19.5943281,11.7238898 C20.3396089,10.4020709 21.5556745,9.78527351 22.9412535,9.78527351 Z M43.4045965,0.192551751 L43.4045965,11.7238898 L43.4489011,11.7238898 C44.1934115,10.4020709 45.4083213,9.78527351 46.7942856,9.78527351 C50.2893426,9.78527351 50.5694249,12.8771584 50.5694249,14.1122943 L50.5694249,20.8071084 L49.2876728,20.8071084 L49.2876728,13.8984763 C49.2876728,12.0436536 48.2226281,10.9589608 46.4735586,10.9589608 C44.3644658,10.9589608 43.4045965,12.7259448 43.4045965,14.6458761 L43.4045965,14.6458761 L43.4045965,20.8071084 L42.1249634,20.8071084 L42.1249634,0.192551751 L43.4045965,0.192551751 Z M52.5064716,9.54905376 C52.6645463,9.54905376 52.8188771,9.5896124 52.969464,9.67072968 C53.120051,9.75184696 53.237359,9.86790706 53.3213882,10.01891 C53.4054174,10.1699129 53.447432,10.3273636 53.447432,10.4912621 C53.447432,10.6534967 53.4060414,10.8094915 53.3232601,10.9592464 C53.2404789,11.1090014 53.1244188,11.2252695 52.9750798,11.3080507 C52.8257408,11.3908319 52.6695381,11.4322226 52.5064716,11.4322226 C52.343405,11.4322226 52.1872023,11.3908319 52.0378633,11.3080507 C51.8885243,11.2252695 51.7722562,11.1090014 51.689059,10.9592464 C51.6058618,10.8094915 51.5642632,10.6534967 51.5642632,10.4912621 C51.5642632,10.3273636 51.6064858,10.1699129 51.6909309,10.01891 C51.7753761,9.86790706 51.8928922,9.75184696 52.0434791,9.67072968 C52.194066,9.5896124 52.3483969,9.54905376 52.5064716,9.54905376 Z M52.5064716,9.70504853 C52.374188,9.70504853 52.2454403,9.73895139 52.1202285,9.80675711 C51.9950167,9.87456284 51.897052,9.97148758 51.8263344,10.0975314 C51.7556168,10.2235751 51.7202579,10.3548187 51.7202579,10.4912621 C51.7202579,10.6268736 51.7549928,10.7568692 51.8244624,10.8812491 C51.8939321,11.0056289 51.9910649,11.1025536 52.1158607,11.1720233 C52.2406565,11.241493 52.3708601,11.2762278 52.5064716,11.2762278 C52.642083,11.2762278 52.7722866,11.241493 52.8970824,11.1720233 C53.0218783,11.1025536 53.118803,11.0056289 53.1878567,10.8812491 C53.2569104,10.7568692 53.2914372,10.6268736 53.2914372,10.4912621 C53.2914372,10.3548187 53.2562864,10.2235751 53.1859848,10.0975314 C53.1156831,9.97148758 53.0177184,9.87456284 52.8920906,9.80675711 C52.7664628,9.73895139 52.6379231,9.70504853 52.5064716,9.70504853 Z M52.4415777,9.99831868 L52.5246449,10.0000736 C52.6015504,10.0035835 52.6599704,10.0123582 52.6999051,10.0263977 C52.7531513,10.0451171 52.7955819,10.077772 52.8271968,10.1243625 C52.8588117,10.1709529 52.8746192,10.2204552 52.8746192,10.2728695 C52.8746192,10.346915 52.8482041,10.4113928 52.7953739,10.466303 C52.7425436,10.5212131 52.67245,10.5519961 52.5850929,10.5586519 C52.6208677,10.5736274 52.6495708,10.5915148 52.671202,10.6123141 C52.7119687,10.6522487 52.761887,10.7192225 52.820957,10.8132353 L52.820957,10.8132353 L52.9445049,11.0116607 L52.7448316,11.0116607 L52.6549786,10.851922 L52.6045143,10.7665149 C52.5566239,10.6899215 52.5164552,10.6397692 52.4840083,10.616058 C52.4540573,10.5927627 52.4103788,10.5811151 52.3529727,10.5811151 L52.3529727,10.5811151 L52.2568799,10.5811151 L52.2568799,11.0116607 L52.0933974,11.0116607 L52.0933974,9.99831868 L52.4415777,9.99831868 Z M52.4428257,10.1355941 L52.2568799,10.1355941 L52.2568799,10.4413438 L52.4553053,10.4413438 C52.5501501,10.4413438 52.6148359,10.4272003 52.6493628,10.3989132 C52.6838896,10.3706262 52.701153,10.3331874 52.701153,10.286597 C52.701153,10.256646 52.6928333,10.2298149 52.6761939,10.2061037 C52.6595544,10.1823925 52.6364672,10.1647131 52.6069322,10.1530655 C52.5773972,10.1414179 52.522695,10.1355941 52.4428257,10.1355941 L52.4428257,10.1355941 Z M14.0976652,0.192551751 L14.0976652,7.01411555 L12.8444222,7.01411555 L12.8444222,0.192551751 L14.0976652,0.192551751 Z"></path>
                            </g>
                        </g>
                        <path d="M1413.89355,0 L1413.89355,6.81891497 L1412.65855,6.81891497 L1412.65855,0 L1413.89355,0 Z M1384.64355,0 L1384.64355,6.81891497 L1383.40855,6.81891497 L1383.40855,0 L1384.64355,0 Z M1355.39355,0 L1355.39355,6.81891497 L1354.15855,6.81891497 L1354.15855,0 L1355.39355,0 Z M1326.14355,0 L1326.14355,6.81891497 L1324.90855,6.81891497 L1324.90855,0 L1326.14355,0 Z M1296.89355,0 L1296.89355,6.81891497 L1295.65855,6.81891497 L1295.65855,0 L1296.89355,0 Z M1267.64355,0 L1267.64355,6.81891497 L1266.40855,6.81891497 L1266.40855,0 L1267.64355,0 Z M1238.39355,0 L1238.39355,6.81891497 L1237.15855,6.81891497 L1237.15855,0 L1238.39355,0 Z M1209.14355,0 L1209.14355,6.81891497 L1207.90855,6.81891497 L1207.90855,0 L1209.14355,0 Z M1179.89355,0 L1179.89355,6.81891497 L1178.65855,6.81891497 L1178.65855,0 L1179.89355,0 Z M1150.64355,0 L1150.64355,6.81891497 L1149.40855,6.81891497 L1149.40855,0 L1150.64355,0 Z M1121.39355,0 L1121.39355,6.81891497 L1120.15855,6.81891497 L1120.15855,0 L1121.39355,0 Z M1092.14355,0 L1092.14355,6.81891497 L1090.90855,6.81891497 L1090.90855,0 L1092.14355,0 Z M1062.89355,0 L1062.89355,6.81891497 L1061.65855,6.81891497 L1061.65855,0 L1062.89355,0 Z M1033.64355,0 L1033.64355,6.81891497 L1032.40855,6.81891497 L1032.40855,0 L1033.64355,0 Z M1004.39355,0 L1004.39355,6.81891497 L1003.15855,6.81891497 L1003.15855,0 L1004.39355,0 Z M975.143547,0 L975.143547,6.81891497 L973.908547,6.81891497 L973.908547,0 L975.143547,0 Z M945.893547,0 L945.893547,6.81891497 L944.658547,6.81891497 L944.658547,0 L945.893547,0 Z M916.643547,0 L916.643547,6.81891497 L915.408547,6.81891497 L915.408547,0 L916.643547,0 Z M887.393547,0 L887.393547,6.81891497 L886.158547,6.81891497 L886.158547,0 L887.393547,0 Z M858.143547,0 L858.143547,6.81891497 L856.908547,6.81891497 L856.908547,0 L858.143547,0 Z M828.893547,0 L828.893547,6.81891497 L827.658547,6.81891497 L827.658547,0 L828.893547,0 Z M799.643547,0 L799.643547,6.81891497 L798.408547,6.81891497 L798.408547,0 L799.643547,0 Z M770.393547,0 L770.393547,6.81891497 L769.158547,6.81891497 L769.158547,0 L770.393547,0 Z M741.143547,0 L741.143547,6.81891497 L739.908547,6.81891497 L739.908547,0 L741.143547,0 Z M711.893547,0 L711.893547,6.81891497 L710.658547,6.81891497 L710.658547,0 L711.893547,0 Z M682.643547,0 L682.643547,6.81891497 L681.408547,6.81891497 L681.408547,0 L682.643547,0 Z M653.393547,0 L653.393547,6.81891497 L652.158547,6.81891497 L652.158547,0 L653.393547,0 Z M624.143547,0 L624.143547,6.81891497 L622.908547,6.81891497 L622.908547,0 L624.143547,0 Z M594.893547,0 L594.893547,6.81891497 L593.658547,6.81891497 L593.658547,0 L594.893547,0 Z M565.643547,0 L565.643547,6.81891497 L564.408547,6.81891497 L564.408547,0 L565.643547,0 Z M536.393547,0 L536.393547,6.81891497 L535.158547,6.81891497 L535.158547,0 L536.393547,0 Z M507.143547,0 L507.143547,6.81891497 L505.908547,6.81891497 L505.908547,0 L507.143547,0 Z M477.893547,0 L477.893547,6.81891497 L476.658547,6.81891497 L476.658547,0 L477.893547,0 Z M448.643547,0 L448.643547,6.81891497 L447.408547,6.81891497 L447.408547,0 L448.643547,0 Z M419.393547,0 L419.393547,6.81891497 L418.158547,6.81891497 L418.158547,0 L419.393547,0 Z M390.143547,0 L390.143547,6.81891497 L388.908547,6.81891497 L388.908547,0 L390.143547,0 Z M360.893547,0 L360.893547,6.81891497 L359.658547,6.81891497 L359.658547,0 L360.893547,0 Z M331.643547,0 L331.643547,6.81891497 L330.408547,6.81891497 L330.408547,0 L331.643547,0 Z M302.393547,0 L302.393547,6.81891497 L301.158547,6.81891497 L301.158547,0 L302.393547,0 Z M273.143547,0 L273.143547,6.81891497 L271.908547,6.81891497 L271.908547,0 L273.143547,0 Z M243.893547,0 L243.893547,6.81891497 L242.658547,6.81891497 L242.658547,0 L243.893547,0 Z M214.643547,0 L214.643547,6.81891497 L213.408547,6.81891497 L213.408547,0 L214.643547,0 Z M185.393547,0 L185.393547,6.81891497 L184.158547,6.81891497 L184.158547,0 L185.393547,0 Z M156.143547,0 L156.143547,6.81891497 L154.908547,6.81891497 L154.908547,0 L156.143547,0 Z M126.893547,0 L126.893547,6.81891497 L125.658547,6.81891497 L125.658547,0 L126.893547,0 Z M97.6435471,0 L97.6435471,6.81891497 L96.4085471,6.81891497 L96.4085471,0 L97.6435471,0 Z M68.3935471,0 L68.3935471,6.81891497 L67.1585471,6.81891497 L67.1585471,0 L68.3935471,0 Z M39.1435471,0 L39.1435471,6.81891497 L37.9085471,6.81891497 L37.9085471,0 L39.1435471,0 Z M9.89354712,0 L9.89354712,6.81891497 L8.65854712,6.81891497 L8.65854712,0 L9.89354712,0 Z M-19.3564529,0 L-19.3564529,6.81891497 L-20.5914529,6.81891497 L-20.5914529,0 L-19.3564529,0 Z" id="形状结合" stroke="none" fill="#F19400" fill-rule="nonzero" mask="url(#mask-4)"></path>
                    </g>
                </g>
            </g>
        </g>
    </g>
</svg>