<?xml version="1.0" encoding="UTF-8"?>
<svg width="40px" height="41px" viewBox="0 0 40 41" version="1.1" xmlns="http://www.w3.org/2000/svg" xmlns:xlink="http://www.w3.org/1999/xlink">
    <!-- Generator: Sketch 63.1 (92452) - https://sketch.com -->
    <title>购物车</title>
    <desc>Created with Sketch.</desc>
    <g id="設計" stroke="none" stroke-width="1" fill="red" fill-rule="evenodd">
        <g id="2纖奇產品-cleanse清" transform="translate(-1132.000000, -1212.000000)" fill-rule="nonzero">
            <g id="编组-10" transform="translate(240.000000, 749.000000)">
                <g id="6" transform="translate(0.000000, 165.000000)">
                    <g id="编组-7">
                        <g id="產品展開">
                            <g id="去購買" transform="translate(842.000000, 288.000000)">
                                <g id="去购买">
                                    <g id="编组" transform="translate(49.942478, 9.941176)">
                                        <g id="购物车" transform="translate(-0.000000, 0.000000)">
                                            <path d="M32.8633584,35.0880459 L12.5507809,35.0880459 C10.7838278,35.0880459 9.34171848,33.6508584 9.34171848,31.8839053 L9.34171848,30.5549991 C9.34171848,28.7880461 10.7789059,27.3459367 12.5507809,27.3459367 L32.8682803,27.3459367 C33.4638272,27.3459367 33.9461709,27.8282805 33.9461709,28.4238273 C33.9461709,29.0193742 33.4638272,29.5017179 32.8682803,29.5017179 L12.5507809,29.5017179 C11.9699997,29.5017179 11.4974997,29.9742179 11.4974997,30.5549991 L11.4974997,31.8839053 C11.4974997,32.4646866 11.9699997,32.9322647 12.5507809,32.9322647 L32.8682803,32.9322647 C33.4638272,32.9322647 33.9461709,33.4146084 33.9461709,34.0101553 C33.941249,34.6057021 33.4589053,35.0880459 32.8633584,35.0880459 L32.8633584,35.0880459 Z" id="路径" fill="#f19400"></path>
                                            <path d="M32.7698428,29.5017179 C32.174296,29.5017179 31.6919522,29.0193742 31.6919522,28.4238273 C31.6919522,27.8282805 32.174296,27.3459367 32.7698428,27.3459367 C33.7246865,27.3459367 34.5417178,26.6962492 34.7582803,25.7709368 L37.5489833,13.8599996 C37.6966395,13.2398434 37.5489833,12.5999996 37.1552333,12.1028903 C36.7614833,11.6057809 36.1708583,11.3203122 35.5310146,11.3203122 L8.65757788,11.3203122 C7.62890603,11.3203122 6.65437481,10.8182809 6.05390608,9.98156221 L0.241171868,1.71281245 C-0.103359372,1.22554684 0.0147656246,0.556171859 0.502031236,0.211640619 C0.989296847,-0.132890621 1.65867183,-0.00984374972 2.00320307,0.472499986 L7.80609353,8.72648413 C7.99804665,8.99226537 8.31796851,9.15468724 8.652656,9.15468724 L35.5260927,9.15468724 C36.8254677,9.15468724 38.031327,9.73546847 38.8385145,10.7542966 C39.645702,11.7731247 39.9410145,13.0823434 39.6407801,14.3472652 L36.8500771,26.2582024 C36.4071083,28.1678898 34.728749,29.5017179 32.7698428,29.5017179 L32.7698428,29.5017179 Z M15.5432808,40.7678895 C14.0667183,40.7678895 12.8707028,39.566952 12.8707028,38.0953114 C12.8707028,36.618749 14.0716402,35.4227334 15.5432808,35.4227334 C17.0198433,35.4227334 18.2158589,36.6236708 18.2158589,38.0953114 C18.2158589,39.566952 17.0149214,40.7678895 15.5432808,40.7678895 Z M15.5432808,37.5735927 C15.2578121,37.5735927 15.0264839,37.8049208 15.0264839,38.0903895 C15.0264839,38.3758583 15.2578121,38.6071864 15.5432808,38.6071864 C15.8287495,38.6071864 16.0600777,38.3758583 16.0600777,38.0903895 C16.0600777,37.8049208 15.8287495,37.5735927 15.5432808,37.5735927 Z M27.7396867,40.7678895 C26.2631242,40.7678895 25.0671087,39.566952 25.0671087,38.0953114 C25.0671087,36.618749 26.2680461,35.4227334 27.7396867,35.4227334 C29.2113273,35.4227334 30.4171866,36.618749 30.4171866,38.0903895 C30.4171866,39.566952 29.2162492,40.7678895 27.7396867,40.7678895 Z M27.7396867,37.5735927 C27.454218,37.5735927 27.2228898,37.8049208 27.2228898,38.0903895 C27.2228898,38.3758583 27.454218,38.6071864 27.7396867,38.6071864 C28.0251554,38.6071864 28.2564836,38.3758583 28.2564836,38.0903895 C28.2614054,37.8049208 28.0251554,37.5735927 27.7396867,37.5735927 Z" id="形状" fill="#f19400"></path>
                                            <path d="M30.7371085,18.0091401 L11.5073434,18.0091401 C10.9117966,18.0091401 10.4294528,17.5267964 10.4294528,16.9312495 C10.4294528,16.3357027 10.9117966,15.8533589 11.5073434,15.8533589 L30.7371085,15.8533589 C31.3326554,15.8533589 31.8149991,16.3357027 31.8149991,16.9312495 C31.8149991,17.5317182 31.3326554,18.0091401 30.7371085,18.0091401 Z M27.217968,24.1319524 L15.0215621,24.1319524 C14.4260152,24.1319524 13.9436715,23.6496087 13.9436715,23.0540618 C13.9436715,22.458515 14.4260152,21.9761712 15.0215621,21.9761712 L27.217968,21.9761712 C27.8135148,21.9761712 28.2958586,22.458515 28.2958586,23.0540618 C28.2958586,23.6496087 27.8135148,24.1319524 27.217968,24.1319524 Z" id="形状" fill="#f19400"></path>
                                        </g>
                                    </g>
                                </g>
                            </g>
                        </g>
                    </g>
                </g>
            </g>
        </g>
    </g>
</svg>