<?xml version="1.0" encoding="UTF-8"?>
<svg width="71px" height="26px" viewBox="0 0 71 26" version="1.1" xmlns="http://www.w3.org/2000/svg" xmlns:xlink="http://www.w3.org/1999/xlink">
    <!-- Generator: Sketch 63.1 (92452) - https://sketch.com -->
    <title>選單灰</title>
    <desc>Created with Sketch.</desc>
    <defs>
        <path d="M13,0 C20.1797017,0 26,5.82029825 26,13 C26,20.1797017 20.1797017,26 13,26 C5.82029825,26 0,20.1797017 0,13 C0,5.82029825 5.82029825,0 13,0 Z M12.3,13.7 L8.70165265,13.7 C6.71434028,13.7 5.10330529,15.311035 5.10330529,17.2983474 C5.10330529,19.2856597 6.71434028,20.8966947 8.70165265,20.8966947 C10.688965,20.8966947 12.3,19.2856597 12.3,17.2983474 L12.3,17.2983474 L12.3,13.7 Z M17.2983474,13.7 L13.7,13.7 L13.7,17.2983474 C13.7,19.2856597 15.311035,20.8966947 17.2983474,20.8966947 C19.2856597,20.8966947 20.8966947,19.2856597 20.8966947,17.2983474 C20.8966947,15.311035 19.2856597,13.7 17.2983474,13.7 L17.2983474,13.7 Z M8.70165265,5.10330529 C6.71434028,5.10330529 5.10330529,6.71434028 5.10330529,8.70165265 C5.10330529,10.688965 6.71434028,12.3 8.70165265,12.3 L8.70165265,12.3 L12.3,12.3 L12.3,8.70165265 C12.3,6.71434028 10.688965,5.10330529 8.70165265,5.10330529 Z M17.2983474,5.10330529 C15.311035,5.10330529 13.7,6.71434028 13.7,8.70165265 L13.7,8.70165265 L13.7,12.3 L17.2983474,12.3 C19.2856597,12.3 20.8966947,10.688965 20.8966947,8.70165265 C20.8966947,6.71434028 19.2856597,5.10330529 17.2983474,5.10330529 Z" id="path-1"></path>
    </defs>
    <g id="選單灰" stroke="none" stroke-width="1" fill="none" fill-rule="evenodd">
        <path d="M34.4426256,8.952 L35.6306256,7.764 C34.8386256,6.828 33.8486256,5.874 32.6966256,4.92 L31.5266256,6.036 C32.7866256,7.08 33.7586256,8.052 34.4426256,8.952 Z M39.9146256,10.77 C40.6346256,10.752 41.0846256,10.572 41.2646256,10.212 C41.3906256,9.978 41.4986256,9.6 41.6066256,9.096 L40.3286256,8.7 C40.2386256,9.078 40.1666256,9.312 40.0946256,9.384 C39.9866256,9.492 39.7706256,9.546 39.4826256,9.564 L38.3486256,9.564 C38.0426256,9.564 37.8986256,9.438 37.8986256,9.186 L37.8986256,8.466 L41.2286256,8.466 L41.2286256,5.226 L36.4586256,5.226 L36.4586256,9.762 C36.4586256,10.428 36.9086256,10.77 37.8446256,10.77 L39.9146256,10.77 Z M45.7826256,10.77 C46.4306256,10.752 46.8626256,10.554 47.0606256,10.194 C47.1686256,9.96 47.2586256,9.582 47.3666256,9.042 L46.0526256,8.628 C45.9806256,9.024 45.9086256,9.276 45.8546256,9.384 C45.7466256,9.492 45.5846256,9.546 45.3506256,9.564 L43.8386256,9.564 C43.5146256,9.564 43.3526256,9.42 43.3526256,9.15 L43.3526256,8.466 L46.5746256,8.466 L46.5746256,5.226 L41.9306256,5.226 L41.9306256,9.726 C41.9306256,10.41 42.3986256,10.77 43.3346256,10.77 L45.7826256,10.77 Z M39.8426256,7.368 L37.8986256,7.368 L37.8986256,6.432 L39.8426256,6.432 L39.8426256,7.368 Z M45.1886256,7.368 L43.3526256,7.368 L43.3526256,6.432 L45.1886256,6.432 L45.1886256,7.368 Z M32.3186256,21.426 C33.2546256,19.806 33.9026256,18.996 34.2986256,18.996 C34.5146256,18.996 34.7306256,19.14 34.9826256,19.446 C35.5226256,20.058 36.1706256,20.49 36.8906256,20.706 C37.6466256,20.886 38.6006256,20.994 39.7886256,21.012 C40.9586256,21.03 42.0386256,21.048 43.0466256,21.048 L47.1686256,21.048 L47.5826256,19.356 C47.2586256,19.392 46.8266256,19.41 46.2866256,19.428 L47.0786256,18.222 C45.9986256,17.43 44.8286256,16.728 43.5326256,16.152 L47.3486256,16.152 L47.3486256,14.712 L44.5406256,14.712 L44.5406256,13.452 L46.7906256,13.452 L46.7906256,12.03 L44.5406256,12.03 L44.5406256,11.112 L42.9566256,11.112 L42.9566256,12.03 L40.4726256,12.03 L40.4726256,11.112 L38.9066256,11.112 L38.9066256,12.03 L36.6206256,12.03 L36.6206256,13.452 L38.9066256,13.452 L38.9066256,14.712 L36.0986256,14.712 L36.0986256,16.152 L39.6806256,16.152 C38.7626256,16.89 37.6286256,17.538 36.2966256,18.078 L37.1066256,19.14 C36.9626256,19.104 36.8366256,19.05 36.7286256,18.996 C36.2606256,18.762 35.8286256,18.402 35.3966256,17.916 C35.3066256,17.808 35.2166256,17.718 35.1266256,17.646 L35.1266256,10.842 L31.2026256,10.842 L31.2026256,12.426 L33.5246256,12.426 L33.5246256,17.52 C32.8046256,17.916 31.9946256,18.852 31.1126256,20.292 L32.3186256,21.426 Z M42.9566256,14.712 L40.4726256,14.712 L40.4726256,13.452 L42.9566256,13.452 L42.9566256,14.712 Z M42.8126256,19.482 C41.3906256,19.482 40.1666256,19.464 39.1406256,19.446 C38.4206256,19.41 37.8266256,19.338 37.3586256,19.212 C38.7086256,18.582 39.8426256,17.844 40.7786256,17.016 L39.7706256,16.152 L43.2266256,16.152 L42.5426256,17.16 C43.7666256,17.7 44.9906256,18.456 46.1786256,19.428 C45.9626256,19.428 45.7466256,19.446 45.4946256,19.446 C44.5766256,19.464 43.6766256,19.482 42.8126256,19.482 Z M58.5769016,9.222 L58.5769016,5.28 L52.0969016,5.28 L52.0969016,9.222 L58.5769016,9.222 Z M66.2629016,9.222 L66.2629016,5.28 L59.7829016,5.28 L59.7829016,9.222 L66.2629016,9.222 Z M64.6069016,8.052 L61.4569016,8.052 L61.4569016,6.486 L64.6069016,6.486 L64.6069016,8.052 Z M56.9029016,7.98 L53.7529016,7.98 L53.7529016,6.522 L56.9029016,6.522 L56.9029016,7.98 Z M60.0529016,21.336 L60.0529016,18.924 L67.0009016,18.924 L67.0009016,17.466 L60.0529016,17.466 L60.0529016,16.332 L65.6149016,16.332 L65.6149016,10.104 L52.7629016,10.104 L52.7629016,16.332 L58.3249016,16.332 L58.3249016,17.466 L51.3589016,17.466 L51.3589016,18.924 L58.3249016,18.924 L58.3249016,21.336 L60.0529016,21.336 Z M58.3249016,12.606 L54.4369016,12.606 L54.4369016,11.454 L58.3249016,11.454 L58.3249016,12.606 Z M63.9409016,12.606 L60.0529016,12.606 L60.0529016,11.454 L63.9409016,11.454 L63.9409016,12.606 Z M63.9409016,14.982 L60.0529016,14.982 L60.0529016,13.812 L63.9409016,13.812 L63.9409016,14.982 Z M58.3249016,14.982 L54.4369016,14.982 L54.4369016,13.812 L58.3249016,13.812 L58.3249016,14.982 Z" id="選單" fill="#838385" fill-rule="nonzero"></path>
        <mask id="mask-2" fill="white">
            <use xlink:href="#path-1"></use>
        </mask>
        <use id="形状结合" fill="#838385" xlink:href="#path-1"></use>
    </g>
</svg>