<?xml version="1.0" encoding="UTF-8"?>
<svg width="110px" height="26px" viewBox="0 0 110 26" version="1.1" xmlns="http://www.w3.org/2000/svg" xmlns:xlink="http://www.w3.org/1999/xlink">
    <!-- Generator: Sketch 63.1 (92452) - https://sketch.com -->
    <title>Shaklee灰备份</title>
    <desc>Created with Sketch.</desc>
    <g id="Shaklee灰备份" stroke="none" stroke-width="1" fill="none" fill-rule="evenodd">
        <path d="M39.7349072,19.224 C41.1749072,19.224 42.2949072,18.936 43.0949072,18.36 C43.8949072,17.768 44.2949072,16.968 44.2949072,15.944 C44.2949072,14.888 43.7989072,14.072 42.8229072,13.48 C42.3749072,13.208 41.3669072,12.84 39.8309072,12.36 C38.7589072,12.04 38.1029072,11.8 37.8469072,11.656 C37.2709072,11.352 36.9989072,10.952 36.9989072,10.44 C36.9989072,9.864 37.2389072,9.448 37.7349072,9.192 C38.1349072,8.968 38.7109072,8.856 39.4629072,8.856 C40.3269072,8.856 40.9669072,9.016 41.4149072,9.352 C41.8629072,9.672 42.1509072,10.216 42.3109072,10.952 L44.0389072,10.952 C43.9269072,9.704 43.4789072,8.792 42.6789072,8.2 C41.9269072,7.624 40.8869072,7.352 39.5589072,7.352 C38.3429072,7.352 37.3349072,7.624 36.5349072,8.168 C35.6869072,8.744 35.2709072,9.528 35.2709072,10.536 C35.2709072,11.528 35.7029072,12.296 36.5829072,12.824 C36.9349072,13.016 37.7989072,13.32 39.2069072,13.768 C40.4709072,14.152 41.2229072,14.408 41.4789072,14.536 C42.1989072,14.904 42.5669072,15.4 42.5669072,16.04 C42.5669072,16.552 42.3109072,16.952 41.7989072,17.24 C41.2869072,17.528 40.5989072,17.688 39.7349072,17.688 C38.7749072,17.688 38.0709072,17.512 37.6069072,17.16 C37.0949072,16.776 36.7749072,16.12 36.6469072,15.224 L34.9189072,15.224 C35.0149072,16.664 35.5269072,17.72 36.4709072,18.392 C37.2549072,18.936 38.3429072,19.224 39.7349072,19.224 Z M47.7475969,19 L47.7475969,13.88 L53.7315969,13.88 L53.7315969,19 L55.4755969,19 L55.4755969,7.576 L53.7315969,7.576 L53.7315969,12.392 L47.7475969,12.392 L47.7475969,7.576 L46.0035969,7.576 L46.0035969,19 L47.7475969,19 Z M58.5442865,19 L59.6162865,16.056 L64.5282865,16.056 L65.6002865,19 L67.4722865,19 L63.0722865,7.576 L61.0882865,7.576 L56.6882865,19 L58.5442865,19 Z M64.0002865,14.616 L60.1442865,14.616 L62.0482865,9.448 L62.1122865,9.448 L64.0002865,14.616 Z M70.4289762,19 L70.4289762,15.048 L71.9169762,13.624 L76.5569762,19 L78.8929762,19 L73.1009762,12.488 L78.1569762,7.576 L75.9489762,7.576 L70.4289762,13.096 L70.4289762,7.576 L68.6849762,7.576 L68.6849762,19 L70.4289762,19 Z M88.1216659,19 L88.1216659,17.512 L81.8336659,17.512 L81.8336659,7.576 L80.1056659,7.576 L80.1056659,19 L88.1216659,19 Z M98.1343555,19 L98.1343555,17.512 L91.3983555,17.512 L91.3983555,13.88 L97.4783555,13.88 L97.4783555,12.392 L91.3983555,12.392 L91.3983555,9.064 L97.8623555,9.064 L97.8623555,7.576 L89.6543555,7.576 L89.6543555,19 L98.1343555,19 Z M108.483045,19 L108.483045,17.512 L101.747045,17.512 L101.747045,13.88 L107.827045,13.88 L107.827045,12.392 L101.747045,12.392 L101.747045,9.064 L108.211045,9.064 L108.211045,7.576 L100.003045,7.576 L100.003045,19 L108.483045,19 Z" id="SHAKLEE" fill="#F29500" fill-rule="nonzero"></path>
        <path d="M13,0 C20.1797017,0 26,5.82029825 26,13 C26,20.1797017 20.1797017,26 13,26 C5.82029825,26 0,20.1797017 0,13 C0,5.82029825 5.82029825,0 13,0 Z M11.1017582,19.9238021 C10.8696997,19.9238021 10.6550456,19.9648514 10.4577959,20.0469499 C10.2605461,20.1290484 10.089403,20.2434 9.94436642,20.3900045 C9.79932985,20.536609 9.6833006,20.7096024 9.59627866,20.9089845 C9.50925673,21.1083667 9.46574576,21.3194772 9.46574576,21.5423161 C9.46574576,21.765155 9.50925673,21.9762655 9.59627866,22.1756476 C9.6833006,22.3750298 9.79932985,22.5480231 9.94436642,22.6946277 C10.089403,22.8412322 10.2605461,22.9585158 10.4577959,23.0464785 C10.6550456,23.1344412 10.8696997,23.1784226 11.1017582,23.1784226 C11.3222138,23.1784226 11.5310664,23.1344412 11.7283162,23.0464785 C11.9255659,22.9585158 12.096709,22.8412322 12.2417456,22.6946277 C12.3867821,22.5480231 12.5028114,22.3750298 12.5898333,22.1756476 C12.6768553,21.9762655 12.7203662,21.765155 12.7203662,21.5423161 C12.7203662,21.3194772 12.6768553,21.1083667 12.5898333,20.9089845 C12.5028114,20.7096024 12.3867821,20.536609 12.2417456,20.3900045 C12.096709,20.2434 11.9255659,20.1290484 11.7283162,20.0469499 C11.5310664,19.9648514 11.3222138,19.9238021 11.1017582,19.9238021 Z M17.0595734,19.9238021 C16.8391178,19.9238021 16.6302652,19.9648514 16.4330155,20.0469499 C16.2357657,20.1290484 16.0646226,20.2434 15.919586,20.3900045 C15.7745495,20.536609 15.6585202,20.7096024 15.5714983,20.9089845 C15.4844763,21.1083667 15.4409654,21.3194772 15.4409654,21.5423161 C15.4409654,21.765155 15.4844763,21.9762655 15.5714983,22.1756476 C15.6585202,22.3750298 15.7745495,22.5480231 15.919586,22.6946277 C16.0646226,22.8412322 16.2357657,22.9585158 16.4330155,23.0464785 C16.6302652,23.1344412 16.8391178,23.1784226 17.0595734,23.1784226 C17.280029,23.1784226 17.4917824,23.1344412 17.6948336,23.0464785 C17.8978848,22.9585158 18.0719286,22.8412322 18.2169652,22.6946277 C18.3620018,22.5480231 18.478031,22.3750298 18.5650529,22.1756476 C18.6520749,21.9762655 18.6955859,21.765155 18.6955859,21.5423161 C18.6955859,21.3194772 18.6520749,21.1083667 18.5650529,20.9089845 C18.478031,20.7096024 18.3620018,20.536609 18.2169652,20.3900045 C18.0719286,20.2434 17.8978848,20.1290484 17.6948336,20.0469499 C17.4917824,19.9648514 17.280029,19.9238021 17.0595734,19.9238021 Z M6.2250685,6.14933983 L4.22585044,6.14933983 C3.92233879,6.14933983 3.68150889,6.23157514 3.50336075,6.39604576 C3.3252126,6.56051638 3.23613853,6.76926755 3.23613853,7.02229927 C3.23613853,7.14881513 3.25263373,7.28798257 3.28562413,7.4398016 C3.31861452,7.59162063 3.37799724,7.73395098 3.46377227,7.86679263 C3.5495473,7.99963428 3.65841561,8.11349856 3.7903772,8.20838545 C3.92233879,8.30327234 4.08729077,8.35071579 4.28523316,8.35071579 L4.28523316,8.35071579 L5.76980102,8.35071579 C6.08650883,9.91951245 6.37022625,11.3428159 6.62095327,12.6206261 C6.72652254,13.1646443 6.83209181,13.7054996 6.93766108,14.243192 C7.04323035,14.7808844 7.1389025,15.2679704 7.22467753,15.7044501 C7.31045256,16.1409299 7.38303144,16.5046629 7.44241415,16.7956494 C7.50179687,17.0866359 7.5380863,17.2700839 7.55128246,17.3459934 C7.59087094,17.5357672 7.64695461,17.7381926 7.71953349,17.9532695 C7.79211236,18.1683465 7.88778451,18.367609 8.00654994,18.551057 C8.12531537,18.734505 8.27377216,18.8831611 8.4519203,18.9970254 C8.63006845,19.1108897 8.85110411,19.1678218 9.11502728,19.1678218 L9.11502728,19.1678218 L19.4872081,19.1678218 C19.8567006,19.1678218 20.1041285,19.0760978 20.229492,18.8926498 C20.3548555,18.7092018 20.4175373,18.4909619 20.4175373,18.2379302 C20.4175373,17.7192152 20.1008295,17.4598577 19.4674139,17.4598577 L19.4674139,17.4598577 L9.47132357,17.4598577 L9.19420423,15.7518936 L19.5861793,15.7518936 C19.9688679,15.7518936 20.2888748,15.6538438 20.5461999,15.4577442 C20.8035249,15.2616446 21.0179625,14.9105631 21.1895126,14.4044997 C21.2818857,14.1641195 21.4039502,13.8351783 21.555706,13.417676 C21.7074618,13.0001736 21.8592177,12.5795084 22.0109735,12.1556803 C22.1627293,11.7318521 22.304588,11.3428159 22.4365496,10.9885715 C22.5685112,10.6343271 22.6542862,10.4002727 22.6938747,10.2864084 C22.7334632,10.1725442 22.7565565,10.0365396 22.7631545,9.8783948 C22.7697526,9.72024997 22.7301641,9.57159384 22.6443891,9.43242639 C22.5586141,9.29325895 22.4134563,9.17623178 22.2089159,9.08134488 C22.0043754,8.98645799 21.7173589,8.93901454 21.3478665,8.93901454 L21.3478665,8.93901454 L7.80860756,8.93901454 C7.76901908,8.68598282 7.72943061,8.44560269 7.68984213,8.21787414 C7.66344981,8.02810035 7.63705749,7.84148946 7.61066518,7.65804146 C7.58427286,7.47459346 7.55788054,7.33226312 7.53148822,7.23105043 C7.50509591,7.14248933 7.47210551,7.03495085 7.43251703,6.90843499 C7.39292856,6.78191913 7.32694776,6.66172907 7.23457465,6.54786479 C7.14220154,6.43400052 7.01683803,6.33911362 6.85848412,6.26320411 C6.70013022,6.18729459 6.48899168,6.14933983 6.2250685,6.14933983 L6.2250685,6.14933983 Z M15.837789,4.90022264 C15.4709772,4.90719885 15.1341774,5.07113957 14.8273894,5.39204483 L14.8273894,5.39204483 L12.1863449,8.15462049 L19.509241,8.15462049 L16.8481886,5.37111622 C16.5414006,5.05021097 16.2046007,4.89324644 15.837789,4.90022264 Z" id="形状结合" fill="#F29500"></path>
    </g>
</svg>